<svg width="240" height="240" viewBox="0 0 240 240" fill="none" xmlns="http://www.w3.org/2000/svg">
<path d="M67.1973 0C61.851 0 56.8925 1.18848 52.5 3.69958C38.7724 11.5699 33.5472 30.7493 36.3159 54.6283C14.1111 64.1868 0 78.2615 0 94C0 109.739 14.1111 123.813 36.3159 133.372C33.5486 157.25 38.7724 176.43 52.5 184.3C56.8837 186.812 61.8423 188 67.1973 188C78.5953 188 91.7687 182.319 105 172.574C118.232 182.319 131.422 188 142.82 188C148.166 188 153.125 186.812 157.517 184.3C171.245 176.43 176.47 157.251 173.701 133.372C195.898 123.813 210 109.735 210 94C210 78.2615 195.889 64.1868 173.684 54.6283C176.451 30.7502 171.228 11.5699 157.5 3.69958C153.116 1.17979 148.158 0 142.803 0C131.405 0 118.231 5.68057 105 15.4263C91.7679 5.68057 78.5913 0 67.1973 0ZM67.1973 15.2056C74.0366 15.2056 83.0809 18.8168 92.9004 25.5068C87.127 30.9172 81.4726 37.0695 76.0327 43.9198C67.2094 45.1762 58.8905 47.0076 51.1841 49.2995C51.1427 48.7688 51.0447 48.2119 51.0132 47.6873C50.0769 32.221 53.4975 20.6919 60.1562 16.8687C62.125 15.7392 64.4235 15.2056 67.1973 15.2056ZM142.803 15.2056C145.568 15.2056 147.875 15.7392 149.844 16.8687C156.502 20.6832 159.923 32.221 158.987 47.6873C158.955 48.2119 158.858 48.7688 158.816 49.2995C151.105 47.0061 142.78 45.1762 133.95 43.9198C128.51 37.0705 122.873 30.9166 117.1 25.5068C126.918 18.8179 135.967 15.2056 142.803 15.2056ZM105 35.163C107.372 37.3069 109.727 39.5728 112.109 42.0531C109.749 41.9743 107.401 41.8664 105 41.8664C102.605 41.8664 100.263 41.9747 97.9077 42.0531C100.288 39.5754 102.63 37.3049 105 35.163ZM105 57.072C112.251 57.072 119.124 57.4745 125.645 58.1751C129.621 63.5427 133.541 69.2175 137.214 75.536C140.736 81.5925 143.849 87.7917 146.597 94C143.849 100.212 140.738 106.421 137.214 112.481C133.552 118.781 129.642 124.42 125.679 129.774C118.927 130.507 112.002 130.928 105 130.928C97.749 130.928 90.8764 130.525 84.3555 129.825C80.3787 124.457 76.4595 118.799 72.7856 112.481C69.2622 106.421 66.1517 100.212 63.4033 94C66.1498 87.7917 69.2644 81.5925 72.7856 75.536C76.4495 69.2358 80.3566 63.5805 84.3213 58.226C91.0725 57.4925 97.9981 57.072 105 57.072ZM146.528 61.7729C150 62.6052 153.337 63.5037 156.475 64.5051C155.764 67.6944 154.895 70.9449 153.911 74.2293C152.785 72.1312 151.693 70.0264 150.476 67.9332C149.224 65.7801 147.833 63.8456 146.528 61.7729ZM63.4546 61.7899C62.1539 63.8561 60.7723 65.787 59.5239 67.9332C58.3071 70.0268 57.2145 72.1309 56.0889 74.2293C55.1032 70.9381 54.2198 67.6838 53.5083 64.4882C56.7032 63.4858 60.0323 62.5981 63.4546 61.7899ZM39.1016 70.0715C40.9452 77.8013 43.5026 85.8143 46.792 93.983C43.5096 102.132 40.9629 110.131 39.1187 117.844C23.8808 110.537 15.3125 101.441 15.3125 94C15.3125 86.3624 23.6414 77.6584 37.5977 70.7333C38.074 70.4967 38.6148 70.3026 39.1016 70.0715ZM170.881 70.1563C186.119 77.4632 194.688 86.559 194.688 94C194.688 101.638 186.359 110.342 172.402 117.267C171.926 117.503 171.385 117.697 170.898 117.929C169.054 110.194 166.517 102.174 163.225 94C166.504 85.8577 169.039 77.863 170.881 70.1563ZM105 76.6221C95.3312 76.6221 87.5 84.3987 87.5 94C87.5 103.601 95.3312 111.378 105 111.378C114.669 111.378 122.5 103.601 122.5 94C122.5 84.3987 114.669 76.6221 105 76.6221ZM56.0889 113.771C57.2152 115.87 58.3234 117.973 59.541 120.067C60.792 122.218 62.168 124.156 63.4717 126.227C60.0001 125.395 56.6628 124.496 53.5254 123.495C54.2367 120.304 55.1046 117.057 56.0889 113.771ZM153.911 113.788C154.896 117.076 155.781 120.319 156.492 123.512C153.297 124.514 149.968 125.402 146.545 126.21C147.846 124.144 149.228 122.213 150.476 120.067C151.69 117.978 152.788 115.882 153.911 113.788ZM51.1841 138.7C58.8954 140.994 67.2204 142.824 76.0498 144.08C81.4913 150.933 87.1245 157.098 92.9004 162.51C83.0816 169.198 74.0361 172.811 67.1973 172.811C64.4323 172.811 62.125 172.261 60.1562 171.131C53.4975 167.317 50.0769 155.796 51.0132 140.33C51.0452 139.8 51.1419 139.237 51.1841 138.7ZM158.816 138.7C158.858 139.237 158.955 139.8 158.987 140.33C159.923 155.796 156.502 167.308 149.844 171.131C147.875 172.261 145.576 172.811 142.803 172.811C135.964 172.811 126.918 169.199 117.1 162.51C122.876 157.098 128.525 150.934 133.967 144.08C142.791 142.824 151.109 140.992 158.816 138.7ZM97.8906 145.947C100.251 146.026 102.599 146.134 105 146.134C107.401 146.134 109.749 146.026 112.109 145.947C109.727 148.427 107.372 150.693 105 152.837C102.628 150.693 100.273 148.427 97.8906 145.947Z" fill="black"/>

<path d="M195.022 35.2123C194.324 34.4382 193.32 34 192.272 34H46.728C45.6803 34 44.6763 34.4382 43.9778 35.2123C43.2648 35.9864 42.9155 37.0235 43.0174 38.0751L56.1283 185.493C56.2593 187.041 57.3361 188.327 58.8203 188.765L118.467 205.854C118.787 205.956 119.136 206 119.485 206C119.835 206 120.169 205.956 120.504 205.854L180.194 188.765C181.679 188.327 182.741 187.041 182.886 185.493L195.983 38.0751C196.085 37.0235 195.735 35.9864 195.022 35.2123ZM163.635 86.0411H93.5547L95.2281 105.073H161.947L156.941 161.32L119.471 172.684L119.107 172.567L82.0736 161.306L80.0509 138.389H98.1966L98.9824 147.284L119.689 151.637L140.018 147.284L142.186 123.213H78.6977L73.7647 67.8567H165.25L163.635 86.0411Z" fill="black"/>
</svg>
