<svg width="611" height="377" viewBox="0 0 611 377" fill="none" xmlns="http://www.w3.org/2000/svg">
<g id="index_page">
<g id="index_page_out_line">
<g id="shape">
<path d="M1 10C1 5.02943 5.02944 1 10 1H601C605.971 1 610 5.02944 610 10V367C610 371.971 605.971 376 601 376H9.99999C5.02943 376 1 371.971 1 367V10Z" fill="#18191C"/>
<path d="M1 40.5H102.5M102.5 40.5H103M102.5 40.5V1M102.5 40.5V41M207 40.5H207.5M207.5 40.5H610M207.5 40.5V41M207.5 40.5V1M9.99999 376H601C605.971 376 610 371.971 610 367V10C610 5.02944 605.971 1 601 1H10C5.02944 1 1 5.02943 1 10V367C1 371.971 5.02943 376 9.99999 376Z" stroke="white"/>
</g>
</g>
<g id="window_elements">
<circle id="Ellipse 3" cx="24.5" cy="20.5" r="7.5" fill="#D9D9D9"/>
<circle id="Ellipse 4" cx="49.5" cy="20.5" r="7.5" fill="#D9D9D9"/>
<circle id="Ellipse 5" cx="74.5" cy="20.5" r="7.5" fill="#D9D9D9"/>
</g>
<g id="index_page_title">
<path id="index.js" d="M119.124 18.0752V26H118.252V18.0752H119.124ZM118.099 15.7827C118.099 15.6167 118.15 15.4775 118.252 15.3652C118.36 15.248 118.506 15.1895 118.692 15.1895C118.877 15.1895 119.024 15.248 119.131 15.3652C119.244 15.4775 119.3 15.6167 119.3 15.7827C119.3 15.9438 119.244 16.083 119.131 16.2002C119.024 16.3125 118.877 16.3687 118.692 16.3687C118.506 16.3687 118.36 16.3125 118.252 16.2002C118.15 16.083 118.099 15.9438 118.099 15.7827ZM122.391 19.7671V26H121.519V18.0752H122.354L122.391 19.7671ZM122.193 21.5469L121.805 21.3271C121.834 20.8584 121.929 20.4189 122.09 20.0088C122.251 19.5986 122.469 19.2373 122.742 18.9248C123.021 18.6123 123.345 18.3682 123.716 18.1924C124.092 18.0166 124.507 17.9287 124.961 17.9287C125.357 17.9287 125.711 17.9824 126.023 18.0898C126.336 18.1973 126.602 18.3682 126.822 18.6025C127.042 18.8369 127.208 19.1372 127.32 19.5034C127.437 19.8696 127.496 20.3164 127.496 20.8438V26H126.617V20.8364C126.617 20.2896 126.541 19.8623 126.39 19.5547C126.238 19.2422 126.023 19.02 125.745 18.8882C125.467 18.7563 125.137 18.6904 124.756 18.6904C124.336 18.6904 123.968 18.7832 123.65 18.9688C123.338 19.1494 123.074 19.3862 122.859 19.6792C122.649 19.9673 122.488 20.2773 122.376 20.6094C122.264 20.9365 122.203 21.249 122.193 21.5469ZM134.915 24.4619V14.75H135.794V26H134.974L134.915 24.4619ZM129.415 22.1182V21.9644C129.415 21.3491 129.485 20.7949 129.627 20.3018C129.769 19.8037 129.971 19.3789 130.235 19.0273C130.503 18.6709 130.826 18.3999 131.202 18.2144C131.578 18.0239 132.002 17.9287 132.476 17.9287C132.94 17.9287 133.35 18.0044 133.707 18.1558C134.063 18.3071 134.368 18.5244 134.622 18.8076C134.881 19.0908 135.088 19.4277 135.245 19.8184C135.406 20.209 135.523 20.6436 135.596 21.1221V23.0776C135.538 23.5269 135.43 23.9395 135.274 24.3154C135.118 24.6865 134.91 25.0112 134.651 25.2896C134.393 25.563 134.08 25.7754 133.714 25.9268C133.353 26.0732 132.935 26.1465 132.461 26.1465C131.993 26.1465 131.57 26.0488 131.194 25.8535C130.818 25.6582 130.499 25.3823 130.235 25.0259C129.971 24.6646 129.769 24.2373 129.627 23.7441C129.485 23.251 129.415 22.709 129.415 22.1182ZM130.293 21.9644V22.1182C130.293 22.582 130.34 23.0117 130.433 23.4072C130.525 23.8027 130.667 24.147 130.857 24.4399C131.048 24.7329 131.29 24.9624 131.583 25.1284C131.875 25.2944 132.222 25.3774 132.623 25.3774C133.125 25.3774 133.548 25.2822 133.89 25.0918C134.231 24.8965 134.505 24.6401 134.71 24.3228C134.915 24.0005 135.064 23.6489 135.157 23.2681V20.9902C135.098 20.7314 135.013 20.4678 134.9 20.1992C134.788 19.9307 134.634 19.6841 134.439 19.4595C134.249 19.23 134.004 19.0469 133.707 18.9102C133.414 18.7686 133.057 18.6978 132.637 18.6978C132.232 18.6978 131.883 18.7808 131.59 18.9468C131.297 19.1128 131.053 19.3447 130.857 19.6426C130.667 19.9355 130.525 20.2798 130.433 20.6753C130.34 21.0708 130.293 21.5005 130.293 21.9644ZM141.163 26.1465C140.645 26.1465 140.169 26.0513 139.734 25.8608C139.305 25.6704 138.929 25.4019 138.606 25.0552C138.289 24.7085 138.042 24.2983 137.867 23.8247C137.696 23.3462 137.61 22.8237 137.61 22.2573V21.9424C137.61 21.332 137.701 20.7803 137.881 20.2871C138.062 19.7939 138.311 19.3716 138.628 19.02C138.946 18.6685 139.307 18.3999 139.712 18.2144C140.123 18.0239 140.552 17.9287 141.001 17.9287C141.504 17.9287 141.951 18.019 142.342 18.1997C142.732 18.3755 143.06 18.627 143.323 18.9541C143.592 19.2764 143.794 19.6597 143.931 20.104C144.068 20.5435 144.136 21.0293 144.136 21.5615V22.0962H138.138V21.3491H143.265V21.2466C143.255 20.8022 143.165 20.3872 142.994 20.0015C142.828 19.6108 142.579 19.2935 142.247 19.0493C141.915 18.8052 141.5 18.6831 141.001 18.6831C140.63 18.6831 140.289 18.7612 139.976 18.9175C139.668 19.0737 139.402 19.2983 139.178 19.5913C138.958 19.8794 138.787 20.2236 138.665 20.624C138.548 21.0195 138.489 21.459 138.489 21.9424V22.2573C138.489 22.6968 138.553 23.1069 138.68 23.4878C138.812 23.8638 138.997 24.1958 139.236 24.4839C139.48 24.772 139.769 24.9966 140.101 25.1577C140.433 25.3188 140.799 25.3994 141.199 25.3994C141.668 25.3994 142.083 25.314 142.444 25.1431C142.806 24.9673 143.13 24.6914 143.418 24.3154L143.968 24.7402C143.797 24.9941 143.582 25.2285 143.323 25.4434C143.069 25.6582 142.764 25.8291 142.408 25.9561C142.051 26.083 141.636 26.1465 141.163 26.1465ZM146.209 18.0752L148.348 21.2759L150.494 18.0752H151.534L148.846 21.957L151.644 26H150.618L148.355 22.6528L146.099 26H145.074L147.872 21.957L145.184 18.0752H146.209ZM153.094 25.4653C153.094 25.2944 153.147 25.1504 153.255 25.0332C153.367 24.9111 153.519 24.8501 153.709 24.8501C153.904 24.8501 154.058 24.9087 154.17 25.0259C154.283 25.1431 154.339 25.2896 154.339 25.4653C154.339 25.6313 154.283 25.7729 154.17 25.8901C154.058 26.0073 153.904 26.0659 153.709 26.0659C153.519 26.0659 153.367 26.0073 153.255 25.8901C153.147 25.7729 153.094 25.6313 153.094 25.4653ZM156.829 18.0752H157.708V26.9448C157.708 27.4282 157.627 27.8384 157.466 28.1753C157.305 28.5122 157.071 28.7661 156.763 28.937C156.456 29.1128 156.077 29.2007 155.628 29.2007C155.506 29.2007 155.374 29.1885 155.232 29.1641C155.091 29.1396 154.961 29.1055 154.844 29.0615L154.859 28.3291C154.947 28.3535 155.052 28.3755 155.174 28.395C155.291 28.4194 155.406 28.4316 155.518 28.4316C155.801 28.4316 156.041 28.3755 156.236 28.2632C156.431 28.1558 156.578 27.9922 156.675 27.7725C156.778 27.5527 156.829 27.2769 156.829 26.9448V18.0752ZM156.675 15.7827C156.675 15.6167 156.729 15.4775 156.836 15.3652C156.944 15.248 157.09 15.1895 157.276 15.1895C157.461 15.1895 157.608 15.248 157.715 15.3652C157.828 15.4775 157.884 15.6167 157.884 15.7827C157.884 15.9438 157.828 16.083 157.715 16.2002C157.608 16.3125 157.461 16.3687 157.276 16.3687C157.09 16.3687 156.944 16.3125 156.836 16.2002C156.729 16.083 156.675 15.9438 156.675 15.7827ZM164.937 23.9785C164.937 23.7637 164.883 23.5513 164.776 23.3413C164.668 23.1313 164.461 22.9385 164.153 22.7627C163.851 22.5869 163.404 22.438 162.813 22.3159C162.374 22.2183 161.98 22.1084 161.634 21.9863C161.292 21.8643 161.004 21.7178 160.77 21.5469C160.535 21.376 160.357 21.1709 160.235 20.9316C160.113 20.6924 160.052 20.4092 160.052 20.082C160.052 19.7891 160.115 19.5132 160.242 19.2544C160.374 18.9907 160.56 18.7612 160.799 18.5659C161.043 18.3657 161.336 18.2095 161.678 18.0972C162.024 17.9849 162.413 17.9287 162.842 17.9287C163.453 17.9287 163.975 18.0337 164.41 18.2437C164.849 18.4487 165.184 18.7295 165.413 19.0859C165.647 19.4424 165.765 19.8452 165.765 20.2944H164.893C164.893 20.021 164.812 19.7622 164.651 19.5181C164.495 19.2739 164.263 19.0737 163.956 18.9175C163.653 18.7612 163.282 18.6831 162.842 18.6831C162.388 18.6831 162.02 18.7515 161.736 18.8882C161.453 19.0249 161.246 19.1982 161.114 19.4082C160.987 19.6182 160.923 19.8354 160.923 20.0601C160.923 20.2358 160.95 20.397 161.004 20.5435C161.062 20.6851 161.165 20.8169 161.312 20.939C161.463 21.061 161.678 21.1758 161.956 21.2832C162.234 21.3906 162.596 21.4956 163.04 21.5981C163.68 21.7397 164.202 21.9131 164.607 22.1182C165.018 22.3184 165.32 22.5674 165.516 22.8652C165.711 23.1582 165.809 23.5146 165.809 23.9346C165.809 24.2617 165.74 24.562 165.604 24.8354C165.467 25.104 165.269 25.3359 165.01 25.5312C164.756 25.7266 164.449 25.8779 164.087 25.9854C163.731 26.0928 163.331 26.1465 162.886 26.1465C162.217 26.1465 161.651 26.0366 161.187 25.8169C160.728 25.5923 160.379 25.2993 160.14 24.938C159.905 24.5718 159.788 24.1836 159.788 23.7734H160.66C160.689 24.1836 160.818 24.5083 161.048 24.7476C161.277 24.9819 161.558 25.1479 161.89 25.2456C162.227 25.3433 162.559 25.3921 162.886 25.3921C163.335 25.3921 163.711 25.3262 164.014 25.1943C164.317 25.0625 164.546 24.8892 164.703 24.6743C164.859 24.4595 164.937 24.2275 164.937 23.9785Z" fill="#E5E5E5"/>
</g>
<g id="page_numbers">
<g id="Vector">
<path d="M1 41H23V376H10C5.02944 376 1 371.971 1 367V41Z" fill="#20222B"/>
<path d="M12.4346 73H11.563V63.4565L8.604 64.7163V63.874L12.3101 62.3359H12.4346V73Z" fill="#9D9D9D"/>
<path d="M14.6392 93H7.95947V92.3188L11.4531 88.3638C11.7119 88.0708 11.9487 87.79 12.1636 87.5215C12.3833 87.2529 12.5713 86.9868 12.7275 86.7231C12.8838 86.4595 13.0059 86.1982 13.0938 85.9395C13.1816 85.6758 13.2256 85.4048 13.2256 85.1265C13.2256 84.8042 13.1719 84.5088 13.0645 84.2402C12.957 83.9717 12.8057 83.7397 12.6104 83.5444C12.4102 83.354 12.1709 83.2075 11.8926 83.105C11.6191 82.9976 11.3164 82.9438 10.9844 82.9438C10.6084 82.9438 10.2739 83.0073 9.98096 83.1343C9.68799 83.2563 9.44141 83.4248 9.24121 83.6396C9.03613 83.8643 8.87988 84.1279 8.77246 84.4307C8.66504 84.7285 8.60645 85.0557 8.59668 85.4121H7.7251C7.72998 84.9727 7.81055 84.5576 7.9668 84.167C8.12305 83.7764 8.34277 83.4346 8.62598 83.1416C8.9043 82.8486 9.24121 82.6167 9.63672 82.4458C10.0371 82.2749 10.4863 82.1895 10.9844 82.1895C11.4531 82.1895 11.8779 82.2603 12.2588 82.4019C12.6445 82.5386 12.9741 82.7339 13.2476 82.9878C13.521 83.2466 13.731 83.5542 13.8774 83.9106C14.0288 84.2671 14.1045 84.6626 14.1045 85.0972C14.1045 85.4487 14.041 85.793 13.9141 86.1299C13.792 86.4619 13.6309 86.7866 13.4307 87.104C13.2305 87.4214 13.0059 87.729 12.7568 88.0269C12.5078 88.3247 12.2588 88.6152 12.0098 88.8984L9.02881 92.2529H14.6392V93Z" fill="#9D9D9D"/>
<path d="M9.94434 107.192H10.8379C11.1797 107.187 11.502 107.138 11.8047 107.045C12.1074 106.953 12.3711 106.818 12.5957 106.643C12.8203 106.467 12.9985 106.252 13.1304 105.998C13.2622 105.739 13.3281 105.444 13.3281 105.112C13.3281 104.765 13.2744 104.458 13.167 104.189C13.0596 103.916 12.9082 103.686 12.7129 103.5C12.5176 103.32 12.2808 103.183 12.0024 103.09C11.729 102.993 11.4238 102.944 11.0869 102.944C10.75 102.944 10.4399 102.995 10.1567 103.098C9.87354 103.2 9.62939 103.347 9.42432 103.537C9.21924 103.732 9.05566 103.964 8.93359 104.233C8.81641 104.501 8.75293 104.802 8.74316 105.134H7.87158C7.87646 104.709 7.95947 104.318 8.12061 103.962C8.28662 103.601 8.51123 103.288 8.79443 103.024C9.08252 102.761 9.41943 102.556 9.80518 102.409C10.1958 102.263 10.623 102.189 11.0869 102.189C11.541 102.189 11.9585 102.258 12.3394 102.395C12.7202 102.526 13.0498 102.717 13.3281 102.966C13.6016 103.22 13.814 103.53 13.9653 103.896C14.1216 104.262 14.1997 104.677 14.1997 105.141C14.1997 105.41 14.1558 105.666 14.0679 105.91C13.98 106.154 13.8579 106.379 13.7017 106.584C13.5405 106.789 13.3452 106.975 13.1157 107.141C12.8862 107.302 12.6274 107.436 12.3394 107.543C12.6714 107.631 12.9644 107.756 13.2183 107.917C13.4771 108.078 13.6943 108.269 13.8701 108.488C14.0459 108.708 14.1777 108.955 14.2656 109.228C14.3535 109.497 14.3975 109.787 14.3975 110.1C14.3975 110.578 14.312 111.005 14.1411 111.381C13.9751 111.757 13.7456 112.075 13.4526 112.333C13.1597 112.597 12.813 112.8 12.4126 112.941C12.0122 113.078 11.5825 113.146 11.1235 113.146C10.6597 113.146 10.2202 113.078 9.80518 112.941C9.39502 112.8 9.03857 112.597 8.73584 112.333C8.42822 112.07 8.18164 111.752 7.99609 111.381C7.81543 111.005 7.72021 110.581 7.71045 110.107H8.58203C8.5918 110.458 8.6626 110.776 8.79443 111.059C8.92627 111.337 9.10449 111.577 9.3291 111.777C9.55371 111.977 9.81982 112.131 10.1274 112.238C10.4351 112.346 10.7671 112.399 11.1235 112.399C11.4751 112.399 11.7974 112.351 12.0903 112.253C12.3833 112.155 12.6372 112.011 12.8521 111.821C13.062 111.63 13.2256 111.396 13.3428 111.118C13.4648 110.834 13.5259 110.505 13.5259 110.129C13.5259 109.738 13.4526 109.406 13.3062 109.133C13.1646 108.854 12.9741 108.627 12.7349 108.452C12.4858 108.276 12.1978 108.149 11.8706 108.071C11.5435 107.988 11.1992 107.944 10.8379 107.939H9.94434V107.192Z" fill="#9D9D9D"/>
<path d="M13.5039 129.558H15.1738V130.305H13.5039V133H12.6323V130.305H7.61523V129.799L12.5518 122.336H13.5039V129.558ZM8.66992 129.558H12.6323V123.471L12.2148 124.182L8.66992 129.558Z" fill="#9D9D9D"/>
<path d="M8.91162 147.536L9.42432 142.336H14.7563V143.186H10.1714L9.80518 146.752C10.064 146.572 10.3643 146.43 10.7061 146.328C11.0527 146.22 11.4214 146.167 11.812 146.167C12.2954 146.167 12.73 146.252 13.1157 146.423C13.5063 146.594 13.8408 146.831 14.1191 147.133C14.3926 147.436 14.6025 147.8 14.749 148.225C14.8955 148.645 14.9688 149.104 14.9688 149.602C14.9688 150.095 14.9053 150.556 14.7783 150.986C14.6514 151.416 14.4585 151.789 14.1997 152.106C13.936 152.429 13.604 152.683 13.2036 152.868C12.8081 153.054 12.3394 153.146 11.7974 153.146C11.3579 153.146 10.9478 153.081 10.5669 152.949C10.1909 152.812 9.86133 152.619 9.57812 152.37C9.29004 152.116 9.05566 151.806 8.875 151.44C8.69922 151.074 8.58691 150.659 8.53809 150.195H9.38037C9.44385 150.693 9.60254 151.098 9.85645 151.411C10.1104 151.723 10.4375 151.936 10.8379 152.048C11.1162 152.16 11.397 152.219 11.6802 152.224C11.9683 152.224 12.2539 152.17 12.5371 152.062C12.8496 151.96 13.1084 151.792 13.3135 151.557C13.5234 151.323 13.6821 151.042 13.7896 150.715C13.897 150.407 13.9507 150.087 13.9507 149.755C13.9507 149.423 13.9067 149.096 13.8188 148.774C13.7261 148.466 13.582 148.193 13.3867 147.954C13.1914 147.714 12.9497 147.529 12.6616 147.397C12.4321 147.265 12.1904 147.17 11.9365 147.111C11.6875 147.048 11.4238 147.031 11.1455 147.06C10.8574 147.084 10.584 147.153 10.3252 147.265C10.0713 147.373 9.82959 147.529 9.6001 147.734L8.91162 147.536Z" fill="#9D9D9D"/>
<path d="M13.3208 162.255V163.061H13.1963C12.498 163.066 11.895 163.183 11.3872 163.413C10.8794 163.637 10.4546 163.94 10.1128 164.321C9.76611 164.711 9.5 165.173 9.31445 165.705C9.12891 166.232 9.01904 166.784 8.98486 167.36C9.12158 167.16 9.28516 166.977 9.47559 166.811C9.66602 166.64 9.87598 166.494 10.1055 166.372C10.3301 166.254 10.5718 166.164 10.8306 166.101C11.0894 166.032 11.3579 165.998 11.6362 165.998C12.1489 165.998 12.5957 166.096 12.9766 166.291C13.3623 166.486 13.6846 166.748 13.9434 167.075C14.1973 167.402 14.3877 167.778 14.5146 168.203C14.6416 168.623 14.7051 169.055 14.7051 169.499C14.7051 169.968 14.6367 170.422 14.5 170.861C14.3682 171.301 14.168 171.689 13.8994 172.026C13.6357 172.363 13.3062 172.634 12.9106 172.839C12.52 173.044 12.0659 173.146 11.5483 173.146C11.0112 173.146 10.5303 173.042 10.1055 172.832C9.68555 172.622 9.33154 172.343 9.04346 171.997C8.73584 171.63 8.50146 171.206 8.34033 170.722C8.1792 170.239 8.09863 169.741 8.09863 169.228V168.291C8.09863 167.46 8.19873 166.66 8.39893 165.888C8.59912 165.112 8.95557 164.423 9.46826 163.823C9.8833 163.33 10.4009 162.946 11.021 162.673C11.646 162.399 12.3711 162.26 13.1963 162.255H13.3208ZM11.5044 166.76C11.2212 166.76 10.9453 166.804 10.6768 166.892C10.4131 166.975 10.1665 167.097 9.93701 167.258C9.7124 167.414 9.51465 167.604 9.34375 167.829C9.17773 168.049 9.05566 168.295 8.97754 168.569V169.243C8.97754 169.702 9.04102 170.124 9.16797 170.51C9.29492 170.896 9.47314 171.228 9.70264 171.506C9.92725 171.789 10.1958 172.009 10.5083 172.165C10.8257 172.321 11.1724 172.397 11.5483 172.392C11.9243 172.392 12.2539 172.312 12.5371 172.15C12.8203 171.989 13.0596 171.777 13.2549 171.513C13.4502 171.25 13.5967 170.947 13.6943 170.605C13.792 170.258 13.8408 169.902 13.8408 169.536C13.8408 169.169 13.792 168.82 13.6943 168.488C13.5967 168.151 13.4502 167.856 13.2549 167.602C13.0547 167.343 12.8081 167.138 12.5151 166.987C12.2222 166.835 11.8853 166.76 11.5044 166.76Z" fill="#9D9D9D"/>
<path d="M14.9248 182.841L10.3691 193H9.46094L13.98 183.127H7.91553V182.336H14.9248V182.841Z" fill="#9D9D9D"/>
</g>
</g>
</g>
</svg>
