<svg width="56" height="42" viewBox="0 0 56 42" fill="none" xmlns="http://www.w3.org/2000/svg">
<path d="M0 2.23611C0 1.00114 0.984056 0 2.19795 0H53.802C55.0159 0 56 1.00114 56 2.23611V42H0V2.23611Z" fill="#F9E7BB"/>
<path d="M3.87031 7.72917H52.1775V39.1806H3.87031V7.72917Z" fill="#18191C"/>
<path d="M7.83618 4.25347C7.83618 5.36763 6.94839 6.27083 5.85324 6.27083C4.7581 6.27083 3.87031 5.36763 3.87031 4.25347C3.87031 3.13931 4.7581 2.23611 5.85324 2.23611C6.94839 2.23611 7.83618 3.13931 7.83618 4.25347Z" fill="#18191C"/>
<path d="M7.83618 4.25347C7.83618 5.36763 6.94839 6.27083 5.85324 6.27083C4.7581 6.27083 3.87031 5.36763 3.87031 4.25347C3.87031 3.13931 4.7581 2.23611 5.85324 2.23611C6.94839 2.23611 7.83618 3.13931 7.83618 4.25347Z" fill="#18191C"/>
<path d="M7.83618 4.25347C7.83618 5.36763 6.94839 6.27083 5.85324 6.27083C4.7581 6.27083 3.87031 5.36763 3.87031 4.25347C3.87031 3.13931 4.7581 2.23611 5.85324 2.23611C6.94839 2.23611 7.83618 3.13931 7.83618 4.25347Z" fill="#18191C"/>
<path d="M7.83618 4.25347C7.83618 5.36763 6.94839 6.27083 5.85324 6.27083C4.7581 6.27083 3.87031 5.36763 3.87031 4.25347C3.87031 3.13931 4.7581 2.23611 5.85324 2.23611C6.94839 2.23611 7.83618 3.13931 7.83618 4.25347Z" fill="#18191C"/>
<path d="M12.7577 4.25347C12.7577 5.36763 11.8699 6.27083 10.7747 6.27083C9.6796 6.27083 8.79181 5.36763 8.79181 4.25347C8.79181 3.13931 9.6796 2.23611 10.7747 2.23611C11.8699 2.23611 12.7577 3.13931 12.7577 4.25347Z" fill="#18191C"/>
<path d="M12.7577 4.25347C12.7577 5.36763 11.8699 6.27083 10.7747 6.27083C9.6796 6.27083 8.79181 5.36763 8.79181 4.25347C8.79181 3.13931 9.6796 2.23611 10.7747 2.23611C11.8699 2.23611 12.7577 3.13931 12.7577 4.25347Z" fill="#18191C"/>
<path d="M12.7577 4.25347C12.7577 5.36763 11.8699 6.27083 10.7747 6.27083C9.6796 6.27083 8.79181 5.36763 8.79181 4.25347C8.79181 3.13931 9.6796 2.23611 10.7747 2.23611C11.8699 2.23611 12.7577 3.13931 12.7577 4.25347Z" fill="#18191C"/>
<path d="M12.7577 4.25347C12.7577 5.36763 11.8699 6.27083 10.7747 6.27083C9.6796 6.27083 8.79181 5.36763 8.79181 4.25347C8.79181 3.13931 9.6796 2.23611 10.7747 2.23611C11.8699 2.23611 12.7577 3.13931 12.7577 4.25347Z" fill="#18191C"/>
<path d="M22.5135 29.2639L13.2032 25.6654V22.3623L22.5135 18.7639V21.4545L15.1276 24.1889V23.7951L22.5135 26.5733V29.2639Z" fill="#F9E7BB"/>
<path d="M23.7671 34.9514L28.863 14.6514H32.2388L27.1429 34.9514H23.7671Z" fill="#F9E7BB"/>
<path d="M33.4871 29.2639V26.5733L40.8729 23.7951V24.1889L33.4871 21.4545V18.7639L42.7973 22.3623V25.6654L33.4871 29.2639Z" fill="#F9E7BB"/>
</svg>
