<svg width="190" height="30" viewBox="0 0 190 30" fill="none" xmlns="http://www.w3.org/2000/svg">
<path d="M144 9.78819C144 9.21482 144.457 8.75 145.02 8.75H168.98C169.543 8.75 170 9.21482 170 9.78819V28.25H144V9.78819Z" fill="white"/>
<path d="M145.797 12.3385H168.225V26.941H145.797V12.3385Z" fill="#18191C"/>
<path d="M147.638 10.7248C147.638 11.2421 147.226 11.6615 146.718 11.6615C146.209 11.6615 145.797 11.2421 145.797 10.7248C145.797 10.2075 146.209 9.78819 146.718 9.78819C147.226 9.78819 147.638 10.2075 147.638 10.7248Z" fill="#18191C"/>
<path d="M147.638 10.7248C147.638 11.2421 147.226 11.6615 146.718 11.6615C146.209 11.6615 145.797 11.2421 145.797 10.7248C145.797 10.2075 146.209 9.78819 146.718 9.78819C147.226 9.78819 147.638 10.2075 147.638 10.7248Z" fill="#18191C"/>
<path d="M147.638 10.7248C147.638 11.2421 147.226 11.6615 146.718 11.6615C146.209 11.6615 145.797 11.2421 145.797 10.7248C145.797 10.2075 146.209 9.78819 146.718 9.78819C147.226 9.78819 147.638 10.2075 147.638 10.7248Z" fill="#18191C"/>
<path d="M147.638 10.7248C147.638 11.2421 147.226 11.6615 146.718 11.6615C146.209 11.6615 145.797 11.2421 145.797 10.7248C145.797 10.2075 146.209 9.78819 146.718 9.78819C147.226 9.78819 147.638 10.2075 147.638 10.7248Z" fill="#18191C"/>
<path d="M149.923 10.7248C149.923 11.2421 149.511 11.6615 149.003 11.6615C148.494 11.6615 148.082 11.2421 148.082 10.7248C148.082 10.2075 148.494 9.78819 149.003 9.78819C149.511 9.78819 149.923 10.2075 149.923 10.7248Z" fill="#18191C"/>
<path d="M149.923 10.7248C149.923 11.2421 149.511 11.6615 149.003 11.6615C148.494 11.6615 148.082 11.2421 148.082 10.7248C148.082 10.2075 148.494 9.78819 149.003 9.78819C149.511 9.78819 149.923 10.2075 149.923 10.7248Z" fill="#18191C"/>
<path d="M149.923 10.7248C149.923 11.2421 149.511 11.6615 149.003 11.6615C148.494 11.6615 148.082 11.2421 148.082 10.7248C148.082 10.2075 148.494 9.78819 149.003 9.78819C149.511 9.78819 149.923 10.2075 149.923 10.7248Z" fill="#18191C"/>
<path d="M149.923 10.7248C149.923 11.2421 149.511 11.6615 149.003 11.6615C148.494 11.6615 148.082 11.2421 148.082 10.7248C148.082 10.2075 148.494 9.78819 149.003 9.78819C149.511 9.78819 149.923 10.2075 149.923 10.7248Z" fill="#18191C"/>
<path d="M154.453 22.3368L150.13 20.6661V19.1325L154.453 17.4618V18.711L151.024 19.9806V19.7977L154.453 21.0876V22.3368Z" fill="white"/>
<path d="M155.035 24.9774L157.401 15.5524H158.968L156.602 24.9774H155.035Z" fill="white"/>
<path d="M159.548 22.3368V21.0876L162.977 19.7977V19.9806L159.548 18.711V17.4618L163.87 19.1325V20.6661L159.548 22.3368Z" fill="white"/>
<path d="M7.275 29.25C5.81667 29.25 4.69167 28.8792 3.9 28.1375C3.11667 27.3958 2.725 26.325 2.725 24.925V20.95C2.725 20.2833 2.55833 19.7917 2.225 19.475C1.89167 19.1583 1.41667 19 0.8 19H0.35V16.8875H0.8C1.41667 16.8875 1.89167 16.7292 2.225 16.4125C2.55833 16.0958 2.725 15.6083 2.725 14.95V11.575C2.725 10.175 3.11667 9.10417 3.9 8.3625C4.69167 7.62083 5.81667 7.25 7.275 7.25C7.63333 7.25 7.975 7.2625 8.3 7.2875C8.625 7.3125 8.9125 7.35 9.1625 7.4V9.4H7.6125C6.87917 9.4 6.3125 9.57917 5.9125 9.9375C5.5125 10.2958 5.3125 10.85 5.3125 11.6V14.8375C5.3125 15.8375 5.075 16.6083 4.6 17.15C4.13333 17.6917 3.36667 18.0125 2.3 18.1125V17.7875C3.36667 17.8792 4.13333 18.2 4.6 18.75C5.075 19.2917 5.3125 20.0583 5.3125 21.05V24.9C5.3125 25.65 5.5125 26.2042 5.9125 26.5625C6.3125 26.9208 6.87917 27.1 7.6125 27.1H9.1625V29.1C8.9125 29.1417 8.625 29.175 8.3 29.2C7.975 29.2333 7.63333 29.25 7.275 29.25ZM20.9432 26.1375C20.3015 26.1375 19.6307 26.1167 18.9307 26.075C18.239 26.0417 17.5515 25.9875 16.8682 25.9125V11.4125C17.3265 11.3208 17.8098 11.2417 18.3182 11.175C18.8348 11.1083 19.3557 11.0583 19.8807 11.025C20.414 10.9833 20.9265 10.9625 21.4182 10.9625C24.1765 10.9625 26.2557 11.5833 27.6557 12.825C29.0557 14.0583 29.7557 15.975 29.7557 18.575C29.7557 20.3333 29.4265 21.7708 28.7682 22.8875C28.1098 23.9958 27.1265 24.8167 25.8182 25.35C24.5182 25.875 22.8932 26.1375 20.9432 26.1375ZM21.5557 24.05C22.7807 24.05 23.8015 23.8667 24.6182 23.5C25.4348 23.125 26.0473 22.5375 26.4557 21.7375C26.864 20.9292 27.0682 19.8708 27.0682 18.5625C27.0682 17.2625 26.864 16.2083 26.4557 15.4C26.0557 14.5833 25.4515 13.9875 24.6432 13.6125C23.8348 13.2292 22.8265 13.0375 21.6182 13.0375C21.2682 13.0375 20.9015 13.0542 20.5182 13.0875C20.1432 13.1208 19.8057 13.1667 19.5057 13.225V23.95C19.839 23.9917 20.1723 24.0208 20.5057 24.0375C20.8473 24.0458 21.1973 24.05 21.5557 24.05ZM32.8594 26V11.125H43.3219V13.125H35.4469V24H43.4219V26H32.8594ZM34.4594 19.4V17.4H42.2594V19.4H34.4594ZM49.652 26L44.3145 11.125H47.052L51.927 24.9625H51.352L56.2645 11.125H58.8645L53.527 26H49.652ZM59.0721 28.1125V26H71.1596V28.1125H59.0721ZM74.29 26V11.375C74.99 11.2417 75.7025 11.1375 76.4275 11.0625C77.1525 10.9875 77.915 10.95 78.715 10.95C80.94 10.95 82.615 11.3708 83.74 12.2125C84.8734 13.0542 85.44 14.3833 85.44 16.2C85.44 17.9083 84.8817 19.2083 83.765 20.1C82.6567 20.9917 80.9734 21.4375 78.715 21.4375C78.3984 21.4375 78.09 21.4333 77.79 21.425C77.49 21.4083 77.2025 21.3917 76.9275 21.375V26H74.29ZM78.7525 19.525C80.1859 19.525 81.2275 19.2583 81.8775 18.725C82.5359 18.1917 82.865 17.3542 82.865 16.2125C82.865 15.0458 82.5442 14.1958 81.9025 13.6625C81.2609 13.1292 80.2734 12.8625 78.94 12.8625C78.5734 12.8625 78.2234 12.875 77.89 12.9C77.5567 12.925 77.2359 12.9625 76.9275 13.0125V19.4125C77.2275 19.4458 77.5234 19.475 77.815 19.5C78.1067 19.5167 78.4192 19.525 78.7525 19.525ZM94.624 26.1875C93.2157 26.1875 91.9865 25.9167 90.9365 25.375C89.8865 24.8333 89.0699 24 88.4865 22.875C87.9032 21.75 87.6115 20.3167 87.6115 18.575C87.6115 16.825 87.9032 15.3875 88.4865 14.2625C89.0699 13.1292 89.8865 12.2917 90.9365 11.75C91.9949 11.2083 93.224 10.9375 94.624 10.9375C96.0407 10.9375 97.274 11.2083 98.324 11.75C99.3824 12.2917 100.199 13.1292 100.774 14.2625C101.357 15.3875 101.649 16.825 101.649 18.575C101.649 20.3167 101.357 21.75 100.774 22.875C100.191 24 99.3699 24.8333 98.3115 25.375C97.2615 25.9167 96.0324 26.1875 94.624 26.1875ZM94.624 24.1125C95.5157 24.1125 96.2865 23.9333 96.9365 23.575C97.5865 23.2083 98.0865 22.625 98.4365 21.825C98.7865 21.0167 98.9615 19.95 98.9615 18.625C98.9615 17.2583 98.7824 16.1625 98.424 15.3375C98.074 14.5125 97.574 13.9208 96.924 13.5625C96.274 13.1958 95.5074 13.0125 94.624 13.0125C93.749 13.0125 92.9865 13.1917 92.3365 13.55C91.6949 13.9083 91.199 14.4917 90.849 15.3C90.499 16.1083 90.324 17.175 90.324 18.5C90.324 19.875 90.4949 20.975 90.8365 21.8C91.1865 22.6167 91.6824 23.2083 92.324 23.575C92.974 23.9333 93.7407 24.1125 94.624 24.1125ZM104.759 26V11.4125C105.417 11.2875 106.134 11.1792 106.909 11.0875C107.692 10.9958 108.505 10.95 109.346 10.95C111.53 10.95 113.163 11.3292 114.246 12.0875C115.33 12.8375 115.871 14 115.871 15.575C115.871 16.6 115.613 17.4583 115.096 18.15C114.58 18.8333 113.825 19.35 112.834 19.7C111.85 20.05 110.663 20.225 109.271 20.225C108.938 20.225 108.613 20.2208 108.296 20.2125C107.98 20.1958 107.667 20.175 107.359 20.15V26H104.759ZM114.184 26L108.921 19.075H111.784L117.134 26H114.184ZM109.284 18.3375C110.717 18.3375 111.759 18.1125 112.409 17.6625C113.059 17.2125 113.384 16.5208 113.384 15.5875C113.384 14.6125 113.08 13.9125 112.471 13.4875C111.863 13.0542 110.892 12.8375 109.559 12.8375C109.134 12.8375 108.746 12.8542 108.396 12.8875C108.046 12.9125 107.7 12.9542 107.359 13.0125V18.2625C107.725 18.2875 108.042 18.3083 108.309 18.325C108.575 18.3333 108.9 18.3375 109.284 18.3375ZM121.633 26V13.2375H116.521V11.125H129.396V13.2375H124.271V26H121.633ZM129.165 28.1125V26H141.252V28.1125H129.165ZM180.747 29.25C180.389 29.25 180.047 29.2333 179.722 29.2C179.405 29.175 179.122 29.1417 178.872 29.1V27.1H180.422C181.147 27.1 181.709 26.9208 182.109 26.5625C182.509 26.2042 182.709 25.65 182.709 24.9V21.05C182.709 20.0583 182.947 19.2917 183.422 18.75C183.897 18.2 184.664 17.8792 185.722 17.7875V18.1125C184.664 18.0125 183.897 17.6917 183.422 17.15C182.947 16.6083 182.709 15.8375 182.709 14.8375V11.6C182.709 10.85 182.509 10.2958 182.109 9.9375C181.709 9.57917 181.147 9.4 180.422 9.4H178.872V7.4C179.122 7.35 179.405 7.3125 179.722 7.2875C180.047 7.2625 180.389 7.25 180.747 7.25C182.214 7.25 183.339 7.62083 184.122 8.3625C184.905 9.10417 185.297 10.175 185.297 11.575V14.95C185.297 15.6083 185.464 16.0958 185.797 16.4125C186.13 16.7292 186.609 16.8875 187.234 16.8875H187.672V19H187.234C186.609 19 186.13 19.1583 185.797 19.475C185.464 19.7917 185.297 20.2833 185.297 20.95V24.925C185.297 26.325 184.905 27.3958 184.122 28.1375C183.339 28.8792 182.214 29.25 180.747 29.25Z" fill="white"/>
</svg>
