<svg width="22" height="22" viewBox="0 0 22 22" fill="none" xmlns="http://www.w3.org/2000/svg">
<path d="M18.9905 16.4629C17.2422 19.1494 14.2414 20.9216 10.8329 20.9216C5.4366 20.9216 1.06205 16.4795 1.06205 11C1.06205 5.52047 5.4366 1.07843 10.8329 1.07843C14.5047 1.07843 17.7034 3.13503 19.3729 6.17568L20.2929 5.63632C18.4397 2.27338 14.8978 0 10.8329 0C4.85005 0 0 4.92487 0 11C0 17.0751 4.85005 22 10.8329 22C14.6345 22 17.9787 20.0116 19.9119 17.0031L18.9905 16.4629Z" fill="white"/>
<path d="M21.9914 9.85451L17.5351 7.23185L22 4.6244L21.9914 9.85451Z" fill="white"/>
</svg>
